<?xml version="1.0" standalone="no"?><!DOCTYPE svg PUBLIC "-//W3C//DTD SVG 1.1//EN" "http://www.w3.org/Graphics/SVG/1.1/DTD/svg11.dtd"><svg t="1696850399893" class="icon" viewBox="0 0 1024 1024" version="1.1" xmlns="http://www.w3.org/2000/svg" p-id="5230" width="32" height="32" xmlns:xlink="http://www.w3.org/1999/xlink"><path d="M850.912 128l-288.352 16.16c-25.824 0-45.088 19.328-45.088 45.088 0 25.728 19.264 45.056 45.12 45.056l175.648-12.8L142.496 817.056c-19.328 19.328-19.328 45.088 0 64.416 19.328 19.328 45.088 19.328 64.416 0L802.56 285.888l-12.832 175.68c0 25.76 19.328 45.088 45.056 45.088 11.936-0.256 23.36-4.864 32.192-12.96 8.064-8.8 12.64-20.224 12.896-32.16L896 173.12a49.28 49.28 0 0 0-12.896-32.192A49.152 49.152 0 0 0 850.88 128h0.032z" p-id="5231" fill="#2c2c2c"></path></svg>