<?xml version="1.0" standalone="no"?><!DOCTYPE svg PUBLIC "-//W3C//DTD SVG 1.1//EN" "http://www.w3.org/Graphics/SVG/1.1/DTD/svg11.dtd"><svg t="1696850308436" class="icon" viewBox="0 0 1024 1024" version="1.1" xmlns="http://www.w3.org/2000/svg" p-id="4832" width="32" height="32" xmlns:xlink="http://www.w3.org/1999/xlink"><path d="M571.456 511.84l312.704-312.704a40.96 40.96 0 0 0 0-57.6l-1.696-1.696a40.96 40.96 0 0 0-57.6 0l-312.704 313.12L199.456 139.84a40.96 40.96 0 0 0-57.6 0l-1.696 1.696a40.192 40.192 0 0 0 0 57.6l312.704 312.704-312.704 312.704a40.96 40.96 0 0 0 0 57.6l1.696 1.696a40.96 40.96 0 0 0 57.6 0l312.704-312.704 312.704 312.704a40.96 40.96 0 0 0 57.6 0l1.696-1.696a40.96 40.96 0 0 0 0-57.6l-312.704-312.704z" fill="#2c2c2c" p-id="4833"></path></svg>