<?xml version="1.0" standalone="no"?><!DOCTYPE svg PUBLIC "-//W3C//DTD SVG 1.1//EN" "http://www.w3.org/Graphics/SVG/1.1/DTD/svg11.dtd"><svg t="1696851519010" class="icon" viewBox="0 0 1024 1024" version="1.1" xmlns="http://www.w3.org/2000/svg" p-id="11797" width="32" height="32" xmlns:xlink="http://www.w3.org/1999/xlink"><path d="M615.552 128c7.264 0 14.208 2.912 19.36 8.064l184.448 184.448c5.152 5.12 8.064 12.16 8.064 19.456v528.608A27.392 27.392 0 0 1 800 896H251.424A27.392 27.392 0 0 1 224 868.576V155.424C224 140.256 236.256 128 251.424 128z m-70.976 61.728h-258.88V834.24h480V410.88h-185.12a36 36 0 0 1-36-36V189.76z m-132.864 298.272c47.744 0 83.072 27.328 89.824 69.952l0.608 3.936h-42.176l-0.768-2.4c-6.784-21.248-23.392-32.832-47.488-32.832-32.896 0-53.408 26.144-53.408 69.088 0 43.456 20.928 69.76 54.528 69.76 28.704 0 47.904-17.056 48.416-42.688v-0.576H420.48a7.2 7.2 0 0 1-7.2-7.2v-20.416c0-4.032 3.264-7.2 7.2-7.2h75.52c3.936 0 7.104 3.2 7.104 7.104v21.28c0 53.664-35.648 88.192-90.848 88.192-59.904 0-97.376-41.664-97.376-108.096 0-65.568 37.888-107.904 96.864-107.904z m147.84 5.568c3.968 0 7.136 3.264 7.232 7.2v189.504a7.2 7.2 0 0 1-7.2 7.2h-26.144a7.2 7.2 0 0 1-7.2-7.2V500.8c0-4.032 3.232-7.2 7.2-7.2z m166.464-0.608c4.032 0 7.2 3.264 7.2 7.2v22.976a7.2 7.2 0 0 1-7.2 7.2h-82.944v50.496h75.232c4.032 0 7.2 3.264 7.2 7.2v21.856a7.2 7.2 0 0 1-7.2 7.2h-75.232v72.672a7.2 7.2 0 0 1-7.2 7.2h-27.712a7.2 7.2 0 0 1-7.2-7.264V500.16c0-4.032 3.264-7.2 7.2-7.2zM602.88 191.264v161.28h161.312l-161.28-161.28z" fill="#2c2c2c" p-id="11798"></path></svg>