<?xml version="1.0" standalone="no"?><!DOCTYPE svg PUBLIC "-//W3C//DTD SVG 1.1//EN" "http://www.w3.org/Graphics/SVG/1.1/DTD/svg11.dtd"><svg t="1696850154879" class="icon" viewBox="0 0 1024 1024" version="1.1" xmlns="http://www.w3.org/2000/svg" p-id="3176" width="32" height="32" xmlns:xlink="http://www.w3.org/1999/xlink"><rect x="0" y="0" width="1024" height="1024" fill="none"/><path d="M421.568 780.064a49.984 49.984 0 0 1-61.44-7.488l-105.984-105.92a49.92 49.92 0 0 1-7.52-61.568l23.36-38.08 189.696 189.76-38.08 23.296z m-101.376 67.552l-18.496 18.464a20.704 20.704 0 0 1-28.544 0.704l-118.144-106.944a20.672 20.672 0 0 1 0-29.28l24.032-24.064a20.672 20.672 0 0 1 29.28 0l55.904 55.936 52.96 52.96 3.008 2.976a20.768 20.768 0 0 1 0 29.248z m606.432-501.632a31.008 31.008 0 0 0-42.848 0L509.216 720.544l-203.072-203.072L680.704 142.912a30.08 30.08 0 0 0 8.864-21.44 30.176 30.176 0 0 0-8.864-21.44 30.464 30.464 0 0 0-42.848 0L242.496 495.392c-0.48 0.512-0.64 1.184-1.088 1.696-0.128 0.16-0.32 0.256-0.448 0.448l-1.76 2.88c-1.28 1.92-2.816 3.776-3.648 5.952L194.72 573.12a109.76 109.76 0 0 0-15.552 68.224 80.512 80.512 0 0 0-42.944 22.336l-24.064 24.032c-31.68 31.712-31.264 83.648 0.864 115.84l119.456 108.16a80.992 80.992 0 0 0 54.592 21.12c20.832 0 41.632-8 57.472-23.84l18.464-18.464c12.256-12.256 19.648-27.424 22.432-43.296 3.52 0.32 7.04 1.024 10.592 1.024 19.776 0 39.68-5.312 57.536-16.256l66.784-40.832c2.08-0.832 3.84-2.304 5.76-3.52l3.04-1.888c0.224-0.128 0.32-0.32 0.48-0.48 0.544-0.448 1.184-0.608 1.664-1.088L926.624 388.8a30.112 30.112 0 0 0 8.864-21.408 30.112 30.112 0 0 0-8.864-21.408z" p-id="3177" fill="#2c2c2c"></path></svg>