<?xml version="1.0" standalone="no"?><!DOCTYPE svg PUBLIC "-//W3C//DTD SVG 1.1//EN" "http://www.w3.org/Graphics/SVG/1.1/DTD/svg11.dtd"><svg t="1698750269175" class="icon" viewBox="0 0 1024 1024" version="1.1" xmlns="http://www.w3.org/2000/svg" p-id="2187" xmlns:xlink="http://www.w3.org/1999/xlink" width="32" height="32"><path d="M265.152 182.848a82.24 82.24 0 0 0-82.304 82.304v493.696a82.304 82.304 0 0 0 82.304 82.304h493.696a82.304 82.304 0 0 0 82.304-82.304V265.152a82.272 82.272 0 0 0-82.304-82.304H265.152z m0-54.848h493.696A137.152 137.152 0 0 1 896 265.152v493.696A137.152 137.152 0 0 1 758.848 896H265.152A137.152 137.152 0 0 1 128 758.848V265.152A137.152 137.152 0 0 1 265.152 128zM320 438.016v238.56a27.424 27.424 0 0 1-54.848 0V347.424c0-27.136 35.2-37.792 50.24-15.2l169.184 253.76v-238.56a27.424 27.424 0 0 1 54.848 0v329.152c0 27.136-35.2 37.792-50.24 15.2L320 438.016zM676.576 704a109.728 109.728 0 1 1 0-219.424 109.728 109.728 0 0 1 0 219.424z m0-54.848a54.848 54.848 0 1 0 0-109.728 54.848 54.848 0 0 0 0 109.728z" fill="#2c2c2c" p-id="2188"></path></svg>