<?xml version="1.0" standalone="no"?><!DOCTYPE svg PUBLIC "-//W3C//DTD SVG 1.1//EN" "http://www.w3.org/Graphics/SVG/1.1/DTD/svg11.dtd"><svg t="1698846298345" class="icon" viewBox="0 0 1024 1024" version="1.1" xmlns="http://www.w3.org/2000/svg" p-id="5138" width="32" height="32" xmlns:xlink="http://www.w3.org/1999/xlink"><path d="M960.717 705.219V865.25c0 52.937-43.075 96.02-96.02 96.02H672.672c-17.701 0-32.01-14.308-32.01-32.01s14.309-32.009 32.01-32.009h192.032c17.666 0 32.01-14.335 32.01-32.001V705.219c0-17.701 14.3-32.01 32.01-32.01 17.692 0 31.992 14.309 31.992 32.01zM320.46 897.25H160.429c-17.631 0-32.001-14.335-32.001-32.001V705.219c0-17.701-14.335-32.01-32.01-32.01-17.666 0-32.001 14.309-32.001 32.01V865.25c0 52.937 43.075 96.02 96.012 96.02H320.46c17.666 0 32.01-14.308 32.01-32.01s-14.344-32.009-32.01-32.009zM95.54 350.369c17.665 0 32.009-14.335 32.009-32V158.336c0-17.64 14.37-32.01 32-32.01h160.032c17.666 0 32.01-14.335 32.01-32 0-17.667-14.335-32.01-32.01-32.01H159.55c-52.937 0-96.012 43.083-96.012 96.02v160.031c0 17.666 14.335 32.001 32.001 32.001zM865.583 62.316H673.552c-17.701 0-32.01 14.335-32.01 32.01 0 17.666 14.309 32.001 32.01 32.001h192.032c17.666 0 32.01 14.37 32.01 32.01v160.031c0 17.666 14.3 32.001 32.01 32.001 17.7 0 32-14.335 32-32V158.336c-0.008-52.937-43.083-96.02-96.02-96.02zM398.973 510.05c0 85.781-48.516 137.11-119.883 137.11s-119.883-51.329-119.883-137.11 48.516-134.297 119.883-134.297 119.883 48.867 119.883 134.297z m-63.985 0c0-50.625-21.445-80.508-55.898-80.508s-55.547 29.883-55.547 80.508c0 50.976 21.094 82.969 55.547 82.969s55.898-31.993 55.898-82.97z m216.914 82.969c-36.914 0-60.82-30.235-60.82-82.266 0-50.977 27.773-81.211 61.523-81.211 18.633 0 32.344 8.438 45.352 20.39l33.047-40.077c-17.93-18.282-45.352-34.102-79.453-34.102-66.446 0-124.805 49.922-124.805 137.11 0 88.593 56.25 134.296 122.695 134.296 34.102 0 63.282-13.008 85.43-38.672l-33.047-39.375c-12.304 13.36-29.18 23.907-49.922 23.907z m265.782-54.493l58.359 103.711H805.73l-48.164-92.109h-30.234v92.11h-62.93V380.673h95.977c55.898 0 102.305 18.984 102.305 82.265 0 38.32-17.93 62.93-45 75.586zM801.16 462.94c0-24.609-15.82-32.695-45.703-32.695h-28.125v70.313h28.125c29.883 0 45.703-13.008 45.703-37.618z" p-id="5139" fill="#2c2c2c"></path></svg>