<?xml version="1.0" standalone="no"?><!DOCTYPE svg PUBLIC "-//W3C//DTD SVG 1.1//EN" "http://www.w3.org/Graphics/SVG/1.1/DTD/svg11.dtd"><svg t="1696849974303" class="icon" viewBox="0 0 1024 1024" version="1.1" xmlns="http://www.w3.org/2000/svg" p-id="2317" width="32" height="32" xmlns:xlink="http://www.w3.org/1999/xlink"><rect x="0" y="0" width="1024" height="1024" fill="none"/><path d="M793.152 177.76c14.08 0 27.456 5.568 37.472 15.68 10.144 10.144 15.68 23.424 15.68 37.504v562.112c0 14.08-5.536 27.456-15.68 37.504-10.112 10.112-23.392 15.68-37.472 15.68H230.912c-14.048 0-27.424-5.568-37.44-15.68a52.736 52.736 0 0 1-15.712-37.504V230.944c0-14.08 5.568-27.456 15.68-37.504 10.144-10.112 23.424-15.68 37.504-15.68h562.208m0-49.76H230.912A103.232 103.232 0 0 0 128 230.944v562.112A103.232 103.232 0 0 0 230.944 896h562.112A103.232 103.232 0 0 0 896 793.056V230.944A103.104 103.104 0 0 0 793.152 128z" fill="#2c2c2c" p-id="2318"></path></svg>