<?xml version="1.0" standalone="no"?><!DOCTYPE svg PUBLIC "-//W3C//DTD SVG 1.1//EN" "http://www.w3.org/Graphics/SVG/1.1/DTD/svg11.dtd"><svg t="1696850219445" class="icon" viewBox="0 0 1024 1024" version="1.1" xmlns="http://www.w3.org/2000/svg" p-id="3805" width="32" height="32" xmlns:xlink="http://www.w3.org/1999/xlink"><rect x="0" y="0" width="1024" height="1024" fill="none"/><path d="M758.848 128A137.152 137.152 0 0 1 896 265.152v493.696A137.152 137.152 0 0 1 758.848 896H265.152A137.152 137.152 0 0 1 128 758.848V265.152A137.152 137.152 0 0 1 265.152 128h493.696z m0 54.848H265.152a82.24 82.24 0 0 0-82.304 82.304v493.696a82.304 82.304 0 0 0 82.304 82.304h493.696a82.304 82.304 0 0 0 82.304-82.304V265.152a82.272 82.272 0 0 0-82.304-82.304zM569.6 279.04V736h-74.88V369.28c-27.52 24.96-62.08 43.52-104.32 55.68v-74.24c20.48-5.12 42.24-14.08 65.28-26.88 23.04-14.08 42.24-28.8 57.6-44.8h56.32z" fill="#2c2c2c" p-id="3806"></path></svg>