<?xml version="1.0" standalone="no"?><!DOCTYPE svg PUBLIC "-//W3C//DTD SVG 1.1//EN" "http://www.w3.org/Graphics/SVG/1.1/DTD/svg11.dtd"><svg t="1696851545155" class="icon" viewBox="0 0 2048 1024" version="1.1" xmlns="http://www.w3.org/2000/svg" p-id="12396" xmlns:xlink="http://www.w3.org/1999/xlink" width="400" height="200"><path d="M543.744 386.528c0 68.064 0.896 136.192 0 204.256-0.352 19.52 4.256 26.72 24.576 25.792 36.16-1.6 72.288-0.544 108.064 0 7.392 0 18.048-2.24 16.672 10.88-0.896 10.272-9.632 8.512-16.256 8.512-44.032 0-88.128-0.672-132.096 0.48-17.12 0.448-19.712-7.136-19.392-21.76 0.608-37.792 0.16-75.392 0.16-113.024v-115.84c0-6.08-2.688-15.584 7.968-16.352 13.312-0.992 10.304 9.824 10.304 17.056zM1315.2 368.64c48.16 0.736 96.352 0 144.544 0.352 6.496 0 15.616-2.24 16.448 8.128 1.152 13.952-10.24 9.728-17.056 9.792-41.056 0.448-82.144 0.8-123.2 0-15.744-0.352-20.096 4.896-20.704 20.8-2.784 78.4-3.36 82.4 64.736 82.592h74.784c6.624 0 15.168-1.504 14.816 9.696-0.352 11.2-8.8 9.28-15.36 9.28-38.08 0-76.192 1.28-114.432-0.32-20.48-0.832-26.144 6.56-24.64 26.08 1.568 19.264 1.568 38.624 0 57.92-1.696 19.744 6.432 24.064 24.096 23.584a3066.432 3066.432 0 0 1 123.2 0c7.136 0 18.112-3.904 19.232 8.128 1.344 15.168-11.36 11.008-19.264 11.072-49.088 0.384-98.24 0-147.328 0.448-14.464 0-19.104-4.8-18.784-19.264 0.832-38.848 0.32-77.504 0.32-116.16 0-37.6 0.512-75.264-0.288-112.864-0.288-14.496 4.352-19.52 18.88-19.264z m224 0.128c31.04 1.088 62.4-1.792 93.056 2.08 73.376 9.344 115.52 65.536 111.424 144.064-3.648 68.384-54.72 117.28-127.04 120.544-24.064 1.024-48.16-0.736-72.256 0.608-16.64 0.896-19.872-5.984-19.872-21.216 0.832-37.632 0.32-75.296 0.32-112.96v-112.96c0-10.144-1.76-20.736 14.368-20.16z m-711.776-0.416l3.712 0.096c30.976 1.76 62.176-0.352 93.184 0.8 48.672 1.824 80.768 34.624 82.816 82.752 2.112 48.64-25.76 83.648-74.432 89.824-25.92 2.752-52 3.36-78.016 1.76-20.16-0.896-29.632 4.096-27.168 26.56 1.024 16.288 1.024 32.64 0 48.928l0.032 3.968c0.096 6.72-0.256 13.664-11.04 12.64-10.784-1.024-7.904-10.4-7.904-16.512v-116.16c-0.064-36.704 0.864-73.408-0.416-110.08-0.608-18.368 3.392-25.6 22.944-24.48z m243.264 0.096l3.52 0.064c31.04 1.28 62.208-0.416 93.28 0.608 49.888 1.664 81.728 34.304 84.32 84.928 2.368 45.28-26.976 81.408-73.952 87.52-25.856 3.232-51.968 3.84-77.952 1.856-23.712-1.856-29.76 7.136-27.328 29.12 1.024 15.2 1.024 30.496 0 45.728-0.192 7.52 1.856 17.856-10.496 17.28-12.352-0.544-9.888-10.816-9.888-18.336v-116.16c0-36.704 0.736-73.408-0.288-110.08-0.48-17.28 5.056-23.2 22.272-22.464z m-589.376 11.744c-0.928 15.52-15.008 10.016-24.096 10.144-37.12 0.544-74.24 0.928-111.264 0-15.84-0.416-20 4.8-20.48 20.736-2.56 83.008-3.104 85.088 73.696 85.12h63.232c5.664 0 12.576-0.96 13.536 7.776 1.152 10.88-6.688 10.688-13.728 10.752-38.112 0-76.256 0.8-114.432 0-16.512-0.48-23.264 3.968-22.304 21.76 1.376 25.408 0.8 50.88 0 76.352 0 8.672 5.664 23.168-11.264 22.432-9.6-0.48-10.528-6.656-10.176-13.12l0.32-4.32c0.096-1.408 0.192-2.752 0.16-4.032-0.48-37.6-0.224-75.264-0.224-112.896 0-36.672 0.704-73.376 0-110.08-0.48-17.28 5.12-23.04 22.272-22.624 44.096 1.056 88.256 0 132.512 0.576 8.672 0 23.264-5.28 22.24 11.424z m258.272-10.336c16.16-0.384 10.72 14.08 10.848 22.88 0.352 36.32 0 72.96 0 109.568 0 36.704 0.352 73.408 0 110.08 0 8.768 5.312 23.2-10.784 22.88-14.4 0-8.8-13.568-8.8-21.28-0.48-74.24-0.48-148.48 0-222.72 0-7.712-5.6-21.12 8.736-21.408z m819.744 17.056c-14.272-1.024-16.16 6.112-16.16 18.336 0.352 31.52 0 63.008 0 94.496v51.52c0.224 76.16 4.544 75.904 87.36 61.664 57.088-9.76 92.928-51.104 93.888-108.096 0.8-60.928-32.032-102.08-90.336-114.304-24.896-5.376-49.888-1.92-74.752-3.616z m-662.592 0h-11.488c-53.984 0.224-57.376 3.584-57.6 57.28v11.392c0.64 15.264 0.544 30.56-0.32 45.824-1.92 19.52 6.048 24.704 24.128 23.712 24.96-1.408 50.24 0.736 75.168-0.928 44.384-2.784 70.752-42.784 58.176-86.944-10.784-37.76-32.704-50.336-88.064-50.336z m285.408 3.616c-14.528-4.416-29.696-3.488-44.64-3.488H1126.4c-50.24 0.064-53.504 3.456-53.696 54.848v22.88c0.192 56.224 3.648 59.648 60.256 59.84h11.648c8.064 0 16.128 0.512 24.096 0 35.104-2.304 59.2-24.928 62.08-57.888 3.52-39.936-13.248-65.504-48.64-76.192z" fill="#2c2c2c" p-id="12397"></path></svg>