<?xml version="1.0" standalone="no"?><!DOCTYPE svg PUBLIC "-//W3C//DTD SVG 1.1//EN" "http://www.w3.org/Graphics/SVG/1.1/DTD/svg11.dtd"><svg t="1696851539025" class="icon" viewBox="0 0 2048 1024" version="1.1" xmlns="http://www.w3.org/2000/svg" p-id="12195" xmlns:xlink="http://www.w3.org/1999/xlink" width="400" height="200"><path d="M948.96 508.544v-125.888c0-6.72-4.256-16.576 4.672-19.04 8.96-2.464 23.872-6.72 29.92 2.464 8.48 13.216 16.064 8.288 26.56 5.6a246.688 246.688 0 0 1 59.584-13.216c28.8 0 40.608 8.736 44.608 37.632 1.696 13.28 2.368 26.688 2.016 40.096V640c0 17.92-6.464 20.64-22.304 19.744-15.84-0.896-22.784 2.688-22.56-19.744 0-74.144-1.088-148.288 0-222.656 0-22.4-9.792-24.64-28.096-19.936-48 12.544-48 12.32-48 62.72v179.2c0 17.92-6.016 21.088-22.304 19.968-16.32-1.12-26.112 2.24-25.216-19.744 1.792-43.68 0-87.584 0-131.488l1.12 0.448z" fill="#2c2c2c" p-id="12196"></path><path d="M881.12 512.128v126.112c0 6.944 4.896 18.176-6.24 20.16-11.2 2.048-23.68 6.72-28.8-5.792-5.12-12.576-15.84-9.664-25.44-6.976-16.736 5.888-33.824 10.848-51.104 14.816-36.384 6.496-54.016-6.944-56.896-44.8-2.016-22.4 0-46.4 0-69.696v-163.744c0-19.936 8.256-21.056 23.648-21.056 15.36 0 24.32 0 23.872 21.056-1.568 70.784 0 141.344 0 211.904 0 32.704 2.88 34.944 33.024 26.88 43.52-11.424 43.52-11.424 43.52-57.12v-174.496c0-17.472 0-28.896 24.096-29.12 24.096-0.224 22.336 14.56 22.336 30.464l-2.016 121.408z" fill="#2c2c2c" p-id="12197"></path><path d="M1181.056 510.112V384c0-7.168-5.376-18.592 5.344-20.832 10.72-2.24 23.872-6.72 29.664 4.032 5.824 10.752 15.424 7.168 24.128 4.928a260.256 260.256 0 0 1 62.24-13.664c27.456 0 44.64 11.84 44.64 38.72 1.568 83.36 0 166.72 0 249.792 0 22.4-18.304 9.664-28.128 12.128-14.496 3.808-17.6-4.928-17.6-18.176v-209.44c0-40.32 0-39.2-40.864-30.464-28.992 6.272-37.696 18.816-36.576 48.384 2.432 62.496 0 125.216 0 187.936 0 17.056-3.584 22.4-22.336 22.4s-24.32-4.896-23.648-23.968c4-40.544 3.136-83.52 3.136-125.664zM534.752 659.52h-24.096c-17.408 2.944-14.272-9.824-14.272-19.488 0-9.6 0-18.816 15.392-17.248 15.392 1.6 22.304 0 34.592 0 62.048 0 92.608-53.312 63.616-109.088a111.872 111.872 0 0 0-33.696-37.44c-15.872-11.616-32.16-22.4-46.88-35.584a103.52 103.52 0 0 1-33.024-114.24 89.312 89.312 0 0 1 87.04-67.2c12.256 0 24.96 0 37.248-1.376 16.32-2.016 20.992 3.584 21.216 20.384 0.224 16.8-7.584 17.696-20.768 17.696-55.104 0-71.168 11.2-78.08 48.64-4.64 20.48 2.72 41.824 18.944 55.104 20.096 17.472 41.504 33.6 62.048 50.848a132.064 132.064 0 0 1 37.696 146.048 93.76 93.76 0 0 1-81.664 60.064c-14.944 2.016-29.888 2.464-44.64 3.808l-0.64-0.896zM1487.456 592.32c11.136-67.2 22.304-134.4 33.024-202.944 2.88-18.816 7.36-30.24 30.784-28.224 17.184 1.568 18.528 8.064 15.392 22.4-16.96 79.296-33.472 158.592-50.432 238.112-5.568 25.984-10.24 52.448-17.856 77.984a64.512 64.512 0 0 1-72.96 52.416c-10.944 0-17.184-2.24-16.064-14.784 1.12-12.544-2.016-17.696 13.376-20.384 38.624-6.944 52.224-32.96 41.28-73.728-22.304-86.016-45.952-172.032-68.48-258.272-1.792-6.72-12.96-19.936 1.984-20.608 14.944-0.672 36.16-15.456 41.28 11.84 15.424 71.488 29.92 143.168 44.64 214.848l4.032 1.344z" fill="#2c2c2c" p-id="12198"></path></svg>