<?xml version="1.0" standalone="no"?><!DOCTYPE svg PUBLIC "-//W3C//DTD SVG 1.1//EN" "http://www.w3.org/Graphics/SVG/1.1/DTD/svg11.dtd"><svg t="1696850271983" class="icon" viewBox="0 0 1024 1024" version="1.1" xmlns="http://www.w3.org/2000/svg" p-id="4434" width="32" height="32" xmlns:xlink="http://www.w3.org/1999/xlink"><path d="M802.112 410.624H402.272v54.848h400.192l-108.544 108.544a27.424 27.424 0 1 0 38.816 38.784l155.2-155.168a27.36 27.36 0 0 0 0-38.784l-155.232-155.136a27.424 27.424 0 0 0-38.784 38.784l108.192 108.16zM128 684.896a274.24 274.24 0 0 1 274.272-274.24v54.816a219.424 219.424 0 0 0-219.424 219.424H128z m0 0h54.848v82.304a27.424 27.424 0 1 1-54.848 0v-82.304z" fill="#2c2c2c" p-id="4435"></path></svg>