<?xml version="1.0" standalone="no"?><!DOCTYPE svg PUBLIC "-//W3C//DTD SVG 1.1//EN" "http://www.w3.org/Graphics/SVG/1.1/DTD/svg11.dtd"><svg t="1734496564257" class="icon" viewBox="0 0 1024 1024" version="1.1" xmlns="http://www.w3.org/2000/svg" p-id="6068" xmlns:xlink="http://www.w3.org/1999/xlink" width="128" height="128"><path d="M512 125.952a386.048 386.048 0 1 0 0 772.096A386.048 386.048 0 0 0 512 125.952zM28.444444 512a483.555556 483.555556 0 1 1 967.111112 0 483.555556 483.555556 0 0 1-967.111112 0z" fill="#2c2c2c" p-id="6069"></path><path d="M566.328889 770.048v-492.657778H486.4l-0.568889 0.341334-72.590222 33.564444V414.72l57.856-22.471111v377.742222h95.232z" fill="#2c2c2c" p-id="6070"></path><path d="M28.444444 512a483.555556 483.555556 0 1 1 967.111112 0 483.555556 483.555556 0 0 1-967.111112 0zM512 34.304a477.696 477.696 0 1 0 0 955.392A477.696 477.696 0 0 0 512 34.304z m0 96.938667a380.757333 380.757333 0 1 0 0 761.514666A380.757333 380.757333 0 0 0 512 131.242667zM125.326222 512a386.673778 386.673778 0 1 1 773.347556 0A386.673778 386.673778 0 0 1 125.326222 512z m360.561778-236.088889H568.888889v495.502222H468.366222V397.425778l-57.457778 22.300444V310.613333l73.784889-34.133333 1.194667-0.568889z m1.308444 5.916445l-70.371555 32.597333v96.597333l57.457778-22.300444v376.832h88.746666V281.827556H487.196444z" fill="#2c2c2c" p-id="6071"></path></svg>