<?xml version="1.0" standalone="no"?><!DOCTYPE svg PUBLIC "-//W3C//DTD SVG 1.1//EN" "http://www.w3.org/Graphics/SVG/1.1/DTD/svg11.dtd"><svg t="1734496779498" class="icon" viewBox="0 0 1024 1024" version="1.1" xmlns="http://www.w3.org/2000/svg" p-id="8293" xmlns:xlink="http://www.w3.org/1999/xlink" width="128" height="128"><path d="M955.392 366.933333l-298.268444-298.325333a40.049778 40.049778 0 0 0-28.444445-11.719111 40.049778 40.049778 0 0 0-28.444444 11.719111l-195.015111 195.128889a390.826667 390.826667 0 0 0-44.544-2.389333 398.904889 398.904889 0 0 0-249.969778 87.552 40.220444 40.220444 0 0 0-3.242667 59.733333l219.932445 219.989333-260.721778 260.551111a19.114667 19.114667 0 0 0-5.575111 11.832889l-4.096 45.056c-1.137778 11.377778 7.964444 21.048889 19.228444 21.048889 0.568889 0 1.194667 0 1.820445-0.113778l44.999111-4.152889a19.114667 19.114667 0 0 0 11.889777-5.518222l260.721778-260.778666 219.932445 219.932444a40.049778 40.049778 0 0 0 59.790222-3.242667 399.872 399.872 0 0 0 84.992-294.684444l195.015111-194.958222a40.106667 40.106667 0 0 0 0-56.661334z m-286.378667 219.932445l4.551111 41.642666a314.595556 314.595556 0 0 1-36.750222 186.311112L209.351111 387.128889a313.116444 313.116444 0 0 1 186.311111-36.807111l41.642667 4.608 191.488-191.488 231.822222 231.822222-191.601778 191.601778z" fill="#2c2c2c" p-id="8294"></path><path d="M962.616889 359.651556a50.346667 50.346667 0 0 1 0 71.111111v0.056889l-191.544889 191.544888a410.055111 410.055111 0 0 1-87.665778 297.301334 50.289778 50.289778 0 0 1-39.367111 18.773333 50.289778 50.289778 0 0 1-35.669333-14.677333l-212.707556-212.764445L142.222222 964.608a29.354667 29.354667 0 0 1-18.204444 8.533333h-0.056889l-44.544 4.096c-1.365333 0.170667-2.56 0.170667-3.015111 0.170667H76.231111a29.582222 29.582222 0 0 1-29.468444-32.256l4.152889-44.942222v-0.056889a29.354667 29.354667 0 0 1 8.533333-18.204445L312.888889 628.622222 100.238222 415.914667a50.460444 50.460444 0 0 1 4.096-75.036445 409.144889 409.144889 0 0 1 297.130667-87.836444l191.544889-191.658667A50.289778 50.289778 0 0 1 628.622222 46.648889c12.856889 0 25.827556 4.835556 35.669334 14.791111l298.268444 298.211556zM405.219556 263.793778a390.826667 390.826667 0 0 0-44.544-2.446222 398.904889 398.904889 0 0 0-249.969778 87.552 40.220444 40.220444 0 0 0-3.242667 59.733333l219.932445 219.989333-260.721778 260.551111a19.114667 19.114667 0 0 0-5.575111 11.832889l-4.096 45.056c-1.137778 11.377778 7.964444 21.048889 19.228444 21.048889 0.568889 0 1.194667 0 1.820445-0.113778l44.999111-4.152889a19.114667 19.114667 0 0 0 11.889777-5.518222l260.721778-260.778666 219.932445 219.932444a40.049778 40.049778 0 0 0 59.790222-3.242667 399.872 399.872 0 0 0 84.992-294.684444l195.015111-194.958222a40.106667 40.106667 0 0 0 0-56.661334l-298.268444-298.325333a40.049778 40.049778 0 0 0-28.444445-11.719111 40.049778 40.049778 0 0 0-28.444444 11.719111l-195.015111 195.128889z m253.610666 324.209778l2.958222-8.362667 184.32-184.376889-217.315555-217.315556-184.263111 184.206223-8.362667 2.958222-41.642667-4.608a302.819556 302.819556 0 0 0-133.006222 14.620444 294.684444 294.684444 0 0 0-35.043555 14.620445l407.665777 407.950222a304.412444 304.412444 0 0 0 29.297778-168.049778l-4.608-41.642666z m-17.066666 217.315555a302.08 302.08 0 0 1-4.949334 9.500445L209.351111 387.128889a321.649778 321.649778 0 0 1 48.810667-21.617778 313.116444 313.116444 0 0 1 137.500444-15.189333l41.642667 4.608 191.488-191.488 231.822222 231.822222-191.601778 191.601778 4.551111 41.642666a314.595556 314.595556 0 0 1-31.800888 176.810667z" fill="#2c2c2c" p-id="8295"></path></svg>