<?xml version="1.0" standalone="no"?><!DOCTYPE svg PUBLIC "-//W3C//DTD SVG 1.1//EN" "http://www.w3.org/Graphics/SVG/1.1/DTD/svg11.dtd"><svg t="1698673302597" class="icon" viewBox="0 0 1024 1024" version="1.1" xmlns="http://www.w3.org/2000/svg" p-id="4537" xmlns:xlink="http://www.w3.org/1999/xlink" width="32" height="32"><path d="M512 94.72A416.64 416.64 0 1 1 93.44 512 417.28 417.28 0 0 1 512 94.72m0-64A480.64 480.64 0 1 0 991.36 512 481.28 481.28 0 0 0 512 30.72z" fill="#2c2c2c" p-id="4538"></path><path d="M512 94.72C582.4 94.72 681.6 256 681.6 512S582.4 928 512 928 342.4 768 342.4 512 440.96 94.72 512 94.72m0-64C384 30.72 278.4 245.76 278.4 512S384 992 512 992s233.6-215.04 233.6-480S640 30.72 512 30.72z" fill="#2c2c2c" p-id="4539"></path><path d="M856.32 195.84h-55.04a685.44 685.44 0 0 1-289.28 64 680.96 680.96 0 0 1-288.64-64h-53.76L128 219.52a755.2 755.2 0 0 0 384 104.32 759.04 759.04 0 0 0 384-103.68zM856.32 827.52h-55.04a684.16 684.16 0 0 0-576 0h-55.04L128 803.84a753.92 753.92 0 0 1 764.16 0zM45.44 480h912.64v64H45.44z" fill="#2c2c2c" p-id="4540"></path><path d="M544 42.24v912.64h-64V42.24z" fill="#2c2c2c" p-id="4541"></path></svg>