<?xml version="1.0" standalone="no"?><!DOCTYPE svg PUBLIC "-//W3C//DTD SVG 1.1//EN" "http://www.w3.org/Graphics/SVG/1.1/DTD/svg11.dtd"><svg t="1696753892388" class="icon" viewBox="0 0 1109 1024" version="1.1" xmlns="http://www.w3.org/2000/svg" p-id="14475" xmlns:xlink="http://www.w3.org/1999/xlink" width="34.65625" height="32"><path d="M988.67166666 30.29333334l-720.042 20.139c-32.25599999 0-56.32000001 24.149-56.32 56.32 0 32.17 24.064 56.32 56.31999999 56.32l579.24200001-16.043-744.192 744.107c-24.149 24.149-24.149 56.32000001 0 80.469 24.15 24.15 56.32 24.15 80.47 1e-8L928.25566666 227.49833335l-16.042 579.24299999c0 32.17 24.149 56.32000001 56.32 56.32A61.44 61.44 0 0 0 1008.72566666 846.93333334a61.44 61.44 0 0 0 16.128-40.192L1044.99166666 86.61333334a61.44 61.44 0 0 0-16.128-40.192A61.44 61.44 0 0 0 988.67166666 30.29333334z" fill="#8a8a8a" p-id="14476"></path></svg>