<?xml version="1.0" standalone="no"?><!DOCTYPE svg PUBLIC "-//W3C//DTD SVG 1.1//EN" "http://www.w3.org/Graphics/SVG/1.1/DTD/svg11.dtd"><svg t="1693228944086" class="icon" viewBox="0 0 1024 1024" version="1.1" xmlns="http://www.w3.org/2000/svg" p-id="8382" xmlns:xlink="http://www.w3.org/1999/xlink" width="32" height="32"><path d="M812.117333 85.418667l-204.714666 24.746666a8.277333 8.277333 0 0 0-4.821334 13.994667l61.013334 61.098667-278.698667 279.63733299a16.597333 16.597333 0 0 0 0 23.25333301l104.533333 104.96-284.37333299 285.141334a8.277333 8.277333 0 0 0-1e-8 11.648L251.52 936.277333a8.234667 8.234667 0 0 0 11.605333 0l330.794667-331.52000001c6.485333-6.4 6.485333-16.938667 0-23.33866599l-104.533333-104.917334 232.277333-232.95999999 60.970667 61.09866699a8.234667 8.234667 0 0 0 13.952-4.864l24.661333-205.312a8.106667 8.106667 0 0 0-9.130667-9.045333z" p-id="8383" fill="#2c2c2c"></path></svg>