<?xml version="1.0" standalone="no"?><!DOCTYPE svg PUBLIC "-//W3C//DTD SVG 1.1//EN" "http://www.w3.org/Graphics/SVG/1.1/DTD/svg11.dtd"><svg t="1693325448989" class="icon" viewBox="0 0 1024 1024" version="1.1" xmlns="http://www.w3.org/2000/svg" p-id="9741" xmlns:xlink="http://www.w3.org/1999/xlink" width="32" height="32"><path d="M1007.268977 766.137586c-34.997002 0-64.621657-63.915577-107.702762-63.915577s-65.972419 63.915577-129.263781 63.915577-86.83759-63.915577-129.243314-63.915577-79.449334 63.915577-129.263781 63.915577-86.172443-63.915577-129.253547-63.915577-66.637566 63.915577-129.263781 63.915577-92.230403-63.915577-129.263781-63.915577-94.246313 63.915577-107.702762 63.915577-27.547348-12.023824 0-42.66155c23.781589-26.380781 63.95651-63.915577 107.702762-63.915577S205.489707 723.476036 253.278011 723.476036s77.433425-63.915577 129.263781-63.915577 76.747811 63.915577 129.253547 63.915577 77.412959-63.915577 129.263781-63.915577S721.848983 723.476036 770.302434 723.476036s76.747811-63.915577 129.263781-63.915577 88.126954 47.47108 107.702762 63.915577c18.184115 15.349562 25.582604 42.66155 0 42.66155z m0-191.736499c-34.997002 0-64.621657-63.915577-107.702762-63.915577s-65.972419 63.915577-129.263781 63.915577-86.83759-63.915577-129.243314-63.915577-79.449334 63.915577-129.263781 63.915577-86.172443-63.915577-129.253547-63.915577-66.637566 63.915577-129.263781 63.915577-92.230403-63.915577-129.263781-63.915577-94.246313 63.915577-107.702762 63.915577-27.567814-12.023824 0-42.610385c23.781589-26.380781 63.95651-63.915577 107.702762-63.915577s81.475477 63.915577 129.263781 63.915577 77.433425-63.915577 129.263781-63.915577 76.747811 63.915577 129.253547 63.915577 77.412959-63.915577 129.263781-63.915577 80.789863 63.915577 129.243314 63.915577 76.747811-63.915577 129.263781-63.915577 88.126954 47.409681 107.702762 63.915577c18.184115 15.30863 25.582604 42.610385 0 42.610385z m0-191.736499c-34.997002 0-64.621657-63.915577-107.702762-63.915577s-65.972419 63.915577-129.263781 63.915577-86.83759-63.915577-129.243314-63.915577-79.449334 63.915577-129.263781 63.915577-86.172443-63.915577-129.253547-63.915577-66.637566 63.915577-129.263781 63.915577-92.230403-63.915577-129.263781-63.915577-94.246313 63.915577-107.702762 63.915577-27.567814-12.023824 0-42.610385c23.781589-26.380781 63.95651-63.915577 107.702762-63.915577s81.475477 63.915577 129.263781 63.915577 77.433425-63.915577 129.263781-63.915577 76.747811 63.915577 129.253547 63.915577 77.412959-63.915577 129.263781-63.915577 80.789863 63.915577 129.243314 63.915577 76.747811-63.915577 129.263781-63.915577 88.126954 47.409681 107.702762 63.915577c18.184115 15.30863 25.582604 42.600152 0 42.600152z m0-191.736499c-34.997002 0-64.621657-63.915577-107.702762-63.915578s-65.972419 63.915577-129.263781 63.915578-86.83759-63.915577-129.243314-63.915578-79.449334 63.915577-129.263781 63.915578-86.172443-63.915577-129.253547-63.915578-66.637566 63.915577-129.263781 63.915578-92.230403-63.915577-129.263781-63.915578-94.246313 63.915577-107.702762 63.915578-27.567814-12.023824 0-42.610385c23.781589-26.380781 63.95651-63.915577 107.702762-63.915577s81.475477 63.915577 129.263781 63.915577 77.433425-63.915577 129.263781-63.915577 76.747811 63.915577 129.253547 63.915577 77.412959-63.915577 129.263781-63.915577 80.789863 63.915577 129.243314 63.915577 76.747811-63.915577 129.263781-63.915577 88.126954 47.409681 107.702762 63.915577c18.184115 15.30863 25.582604 42.600152 0 42.600152zM124.01423 851.389055c43.776952 0 81.475477 63.915577 129.263781 63.915578S330.711436 851.389055 382.541792 851.389055s76.747811 63.915577 129.253547 63.915578S589.208298 851.389055 641.05912 851.389055s80.789863 63.915577 129.243314 63.915578 76.747811-63.915577 129.253548-63.915578 88.126954 47.409681 107.702762 63.915578c18.184115 15.349562 25.582604 42.610385 0 42.610385-34.997002 0-64.621657-63.915577-107.702762-63.915578s-65.972419 63.915577-129.263781 63.915578-86.83759-63.915577-129.243314-63.915578-79.449334 63.915577-129.263781 63.915578-86.16221-63.95651-129.243314-63.95651-66.637566 63.915577-129.263781 63.915578-92.230403-63.915577-129.263781-63.915578-94.246313 63.915577-107.702762 63.915578-27.567814-12.023824 0-42.610385C40.093057 888.88292 80.257745 851.389055 124.01423 851.389055z" p-id="9742" fill="#2c2c2c"></path></svg>