<?xml version="1.0" standalone="no"?><!DOCTYPE svg PUBLIC "-//W3C//DTD SVG 1.1//EN" "http://www.w3.org/Graphics/SVG/1.1/DTD/svg11.dtd"><svg t="1693546272850" class="icon" viewBox="0 0 1024 1024" version="1.1" xmlns="http://www.w3.org/2000/svg" p-id="10678" xmlns:xlink="http://www.w3.org/1999/xlink" width="32" height="32"><path d="M409.4 813.8H302.3V65.2c0-0.6 0.4-1 1-1h105.1c0.6 0 1 0.4 1 1v748.6z" p-id="10679" fill="#2c2c2c"></path><path d="M341 957.7c8.3 8 21.4 8 29.7 0l152.1-146.3c8.2-14.3-2.1-32.1-18.5-32.1H207.5c-16.5 0-26.8 17.8-18.5 32.1l152 146.3zM836.7 337.6H674.9v-43h54V128.8l-55.5 12.6V97L783 73.9v220.7h53.7zM673.2 867.5c13.8 8.9 30.1 13.4 48.9 13.4 41.8 0 63.2-27.2 64.1-81.6l-1-0.3c-11.4 17.5-28.9 26.3-52.7 26.3-21.5 0-39.2-7.5-53.1-22.7-13.9-15.1-20.8-34.2-20.8-57.1 0-27 8.4-48.9 25.1-65.8 16.7-16.8 38.5-25.3 65.4-25.3 28 0 50 10.6 65.9 32 15.9 21.3 23.9 51 23.9 89.2 0 45.3-9.6 81.1-28.9 107.4-19.2 26.3-46.9 39.5-83.1 39.5-20.4 0-38.3-3.3-53.7-9.9v-45.1z m38.3-127c0 13.7 3.3 24.5 10 32.3 6.6 7.8 15.7 11.7 27.2 11.7 10.3 0 18.7-3.7 25.3-11.2 6.6-7.5 10-16.7 10-27.8 0-13.3-3.3-24.9-10-34.8-6.6-9.9-15.5-14.9-26.7-14.9-10.8 0-19.5 4.3-26 12.9-6.5 8.6-9.8 19.2-9.8 31.8z" p-id="10680" fill="#2c2c2c"></path></svg>