<?xml version="1.0" standalone="no"?><!DOCTYPE svg PUBLIC "-//W3C//DTD SVG 1.1//EN" "http://www.w3.org/Graphics/SVG/1.1/DTD/svg11.dtd"><svg t="1693547218223" class="icon" viewBox="0 0 1024 1024" version="1.1" xmlns="http://www.w3.org/2000/svg" p-id="51172" xmlns:xlink="http://www.w3.org/1999/xlink" width="32" height="32"><path d="M64.5 96.47v831.07h895V96.47h-895z m533.39 639.28l-25.22-63.92H433.45l-25.22 63.92H270.26l168.56-447.5h129.85l168.43 447.5H597.89z" fill="#2c2c2c" p-id="51173"></path><path d="M503.11 408.81c-5.97 31.14-13.35 51.25-29.95 110.31l-8.61 24.85h77.02l-8.74-24.85c-16.48-59.69-23.85-79.17-29.72-110.31z" fill="#2c2c2c" p-id="51174"></path><path d="M64.5 96.47v831.07h895V96.47h-895z m533.39 639.28l-25.22-63.92H433.45l-25.22 63.92H270.26l168.56-447.5h129.85l168.43 447.5H597.89z" fill="#2c2c2c" p-id="51175"></path><path d="M503.11 408.81c-5.97 31.14-13.35 51.25-29.95 110.31l-8.61 24.85h77.02l-8.74-24.85c-16.48-59.69-23.85-79.17-29.72-110.31z" fill="#2c2c2c" p-id="51176"></path></svg>