<?xml version="1.0" standalone="no"?><!DOCTYPE svg PUBLIC "-//W3C//DTD SVG 1.1//EN" "http://www.w3.org/Graphics/SVG/1.1/DTD/svg11.dtd"><svg t="1716811554621" class="icon" viewBox="0 0 1024 1024" version="1.1" xmlns="http://www.w3.org/2000/svg" p-id="2791" xmlns:xlink="http://www.w3.org/1999/xlink" width="32" height="32"><path d="M546.134 1024c160.162-0.178 289.954-129.972 290.134-290.134V290.134C836.088 129.972 706.296 0.178 546.134 0h-68.266C317.704 0.178 187.912 129.972 187.734 290.134v443.734c0.178 160.16 129.97 289.954 290.132 290.132z m256-733.866V409.6H580.266V256c-0.116-31.034-21.152-58.084-51.2-65.844V34.134h17.066c141.32 0.16 255.842 114.68 256.002 256z m-256 78.268l-66.986 66.986a33.424 33.424 0 0 1-1.28-8.722v-27.068l68.266-68.266zM512 221.866c2.95 0.04 5.884 0.47 8.722 1.28L477.868 266v-10c-0.002-18.852 15.28-34.134 34.132-34.134z m-34.134 92.4l66.986-66.986c0.81 2.838 1.24 5.77 1.28 8.722v27.068l-68.266 68.266z m68.268 102.4v10.002c0 18.852-15.282 34.134-34.134 34.134a33.438 33.438 0 0 1-8.722-1.28zM477.866 34.134h17.066v156.024c-30.05 7.758-51.084 34.808-51.2 65.844v153.6H221.866v-119.466c0.16-141.322 114.682-255.842 256-256.002z m-256 699.732V443.734h224.29c7.664 30.11 34.774 51.184 65.844 51.184s58.18-21.076 65.844-51.184h224.29v290.134c-0.16 141.318-114.682 255.84-256 256h-68.266c-141.32-0.162-255.842-114.682-256.002-256.002z" p-id="2792" fill="#dbdbdb"></path><path d="M341.334 273.066h51.2a17.066 17.066 0 0 0 0-34.132h-51.2a17.066 17.066 0 0 0-17.066 17.066 17.064 17.064 0 0 0 17.066 17.066zM614.4 256a17.066 17.066 0 0 0 17.066 17.066h51.2a17.066 17.066 0 0 0 0-34.132h-51.2A17.066 17.066 0 0 0 614.4 256zM596.48 188.586c4.526 0 8.866-1.8 12.066-5l36.198-36.198a17.066 17.066 0 0 0-0.208-23.924 17.066 17.066 0 0 0-23.924-0.208l-36.198 36.198a17.066 17.066 0 0 0 12.066 29.132zM415.454 183.586a17.068 17.068 0 1 0 24.132-24.132l-36.198-36.198a17.066 17.066 0 0 0-23.924 0.208 17.066 17.066 0 0 0-0.208 23.924z" p-id="2793" fill="#dbdbdb"></path></svg>