<?xml version="1.0" standalone="no"?><!DOCTYPE svg PUBLIC "-//W3C//DTD SVG 1.1//EN" "http://www.w3.org/Graphics/SVG/1.1/DTD/svg11.dtd"><svg t="1734526540387" class="icon" viewBox="0 0 1024 1024" version="1.1" xmlns="http://www.w3.org/2000/svg" p-id="7335" xmlns:xlink="http://www.w3.org/1999/xlink" width="128" height="128"><path d="M873.244444 106.040889c22.755556 0 44.942222 8.704 61.212445 23.893333 16.782222 15.644444 27.079111 36.807111 28.728889 59.562667v638.520889c0 22.755556-8.704 44.942222-23.893334 61.212444a90.339556 90.339556 0 0 1-59.505777 28.728889H151.324444c-22.755556 0-44.942222-8.704-61.212444-23.893333a90.339556 90.339556 0 0 1-28.728889-59.505778v-6.542222l-0.568889-631.466667a91.022222 91.022222 0 0 1 83.399111-90.453333H873.244444z m-232.903111 629.930667L416.142222 514.446222 160.995556 770.104889a36.067556 36.067556 0 0 1-10.296889 7.566222v50.915556h721.92v-50.915556a45.624889 45.624889 0 0 1-10.24-7.566222l-127.829334-127.829333-31.971555 31.914666-62.805334 61.781334h0.568889z m232.903111-539.477334H151.324444v456.078222L376.604444 427.235556a55.011556 55.011556 0 0 1 36.807112-16.270223c14.108444-0.568889 27.648 3.811556 38.456888 12.515556l4.323556 3.754667 183.637333 183.637333 55.751111-55.808a55.011556 55.011556 0 0 1 36.864-16.270222c14.051556-0.568889 27.591111 3.811556 38.456889 12.515555l4.835556 4.266667 98.076444 98.076444V196.494222h-0.568889z m-203.093333 89.884445c17.863111 0 35.214222 7.054222 47.672889 20.081777 12.458667 12.458667 20.024889 29.809778 20.024889 47.672889 0 17.863111-7.054222 35.214222-20.024889 47.672889a68.152889 68.152889 0 0 1-47.672889 20.024889c-17.863111 0-35.214222-7.054222-47.672889-20.024889a68.152889 68.152889 0 0 1-20.024889-47.672889c0-17.863111 7.054222-35.271111 20.024889-47.672889 12.515556-12.458667 29.809778-20.024889 47.672889-20.024888z" fill="#2c2c2c" p-id="7336"></path></svg>