<?xml version="1.0" standalone="no"?><!DOCTYPE svg PUBLIC "-//W3C//DTD SVG 1.1//EN" "http://www.w3.org/Graphics/SVG/1.1/DTD/svg11.dtd"><svg t="1692972273750" class="icon" viewBox="0 0 1024 1024" version="1.1" xmlns="http://www.w3.org/2000/svg" p-id="31092" xmlns:xlink="http://www.w3.org/1999/xlink" width="32" height="32"><path d="M40.8 324.8h-40V161.6c0-40.8 33.6-74.4 74.4-74.4h164v40H76c-19.2 0-34.4 15.2-34.4 34.4v163.2zM239.2 944.8H76c-40.8 0-74.4-33.6-74.4-74.4V707.2h40v164c0 19.2 15.2 34.4 34.4 34.4H240v39.2zM1023.2 324.8h-40V161.6c0-19.2-15.2-34.4-34.4-34.4H784.8v-40h164c40.8 0 74.4 33.6 74.4 74.4v163.2zM948 944.8H784.8v-40h164c19.2 0 34.4-15.2 34.4-34.4V707.2h40v164c0 40.8-33.6 73.6-75.2 73.6z" fill="#707070" p-id="31093" data-spm-anchor-id="a313x.search_index.0.i7.71b93a81Jlw6Ba" class="selected"></path><path d="M172 808c-20 0-36.8-16.8-36.8-36.8V260.8c0-20 16.8-36.8 36.8-36.8h680.8c20 0 36.8 16.8 36.8 36.8v510.4c0 20-16.8 36.8-36.8 36.8H172z" fill="#FFFFFF" p-id="31094"></path><path d="M852 244c9.6 0 16.8 7.2 16.8 16.8v510.4c0 9.6-7.2 16.8-16.8 16.8h-680c-9.6 0-16.8-7.2-16.8-16.8V260.8c0-9.6 7.2-16.8 16.8-16.8h680m0-40h-680c-31.2 0-56.8 25.6-56.8 56.8v510.4c0 31.2 25.6 56.8 56.8 56.8h680.8c31.2 0 56.8-25.6 56.8-56.8V260.8c-0.8-31.2-26.4-56.8-57.6-56.8z" fill="#707070" p-id="31095" data-spm-anchor-id="a313x.search_index.0.i11.71b93a81Jlw6Ba" class="selected"></path><path d="M639.2 459.2l156 198.4h-312l156-198.4z" fill="#707070" p-id="31096" data-spm-anchor-id="a313x.search_index.0.i8.71b93a81Jlw6Ba" class="selected"></path><path d="M440.8 516l128 141.6H313.6l127.2-141.6z" fill="#707070" p-id="31097" data-spm-anchor-id="a313x.search_index.0.i9.71b93a81Jlw6Ba" class="selected"></path><path d="M311.2 382.4m-88.8 0a88.8 88.8 0 1 0 177.6 0 88.8 88.8 0 1 0-177.6 0Z" fill="#707070" p-id="31098" data-spm-anchor-id="a313x.search_index.0.i10.71b93a81Jlw6Ba" class="selected"></path></svg>