<?xml version="1.0" standalone="no"?><!DOCTYPE svg PUBLIC "-//W3C//DTD SVG 1.1//EN" "http://www.w3.org/Graphics/SVG/1.1/DTD/svg11.dtd"><svg t="1696850289433" class="icon" viewBox="0 0 1024 1024" version="1.1" xmlns="http://www.w3.org/2000/svg" p-id="4633" width="32" height="32" xmlns:xlink="http://www.w3.org/1999/xlink"><path d="M812.928 819.2a38.4 38.4 0 1 1 0 76.8H198.4a38.4 38.4 0 0 1 0-76.8h614.528zM505.664 128a38.4 38.4 0 0 1 38.4 38.4v463.936l184-184a38.4 38.4 0 0 1 57.536 50.688l-3.232 3.616-249.696 249.824a38.4 38.4 0 0 1-50.688 3.232l-3.616-3.2-249.472-249.024a38.4 38.4 0 0 1 50.624-57.568l3.616 3.2 184.128 183.744V166.4a38.4 38.4 0 0 1 38.4-38.4z" fill="#2c2c2c" p-id="4634"></path></svg>