<?xml version="1.0" standalone="no"?><!DOCTYPE svg PUBLIC "-//W3C//DTD SVG 1.1//EN" "http://www.w3.org/Graphics/SVG/1.1/DTD/svg11.dtd"><svg t="1696851380894" class="icon" viewBox="0 0 1024 1024" version="1.1" xmlns="http://www.w3.org/2000/svg" p-id="9307" width="32" height="32" xmlns:xlink="http://www.w3.org/1999/xlink"><path d="M871.488 86.976a64 64 0 0 1 64 64v504.896a64 64 0 0 1-64 64h-47.68a39.84 39.84 0 0 1 0-79.712h31.968V166.624H168.192v473.536h31.936a39.84 39.84 0 0 1 0 79.68H152.512a64 64 0 0 1-64-64V151.008a64 64 0 0 1 64-64h718.976z" p-id="9308" fill="#2c2c2c"></path><path d="M347.104 298.336l6.4 2.08 158.592 226.912 160.992-227.456 6.72-0.224a68.576 68.576 0 0 1 23.072 85.12l-2.784 5.408-3.168 4.992-138.848 198.752 63.648 90.944 3.264-1.312c3.616-1.376 7.328-2.56 11.072-3.616l5.664-1.408 8.64-1.696 8.704-1.056 8.704-0.48a130.88 130.88 0 1 1-111.168 61.632l4-6.048 1.312-1.792-49.856-71.104-49.856 71.264 1.44 1.92a130.944 130.944 0 0 1 3.2 144.992l-4 5.952-4.352 5.76-4.48 5.28-4.768 5.056a130.88 130.88 0 1 1-54.4-217.216l6.368 2.144 1.44 0.544 63.744-91.04-138.848-198.272a68.48 68.48 0 0 1-11.264-27.456l-0.768-5.952-0.256-6.08 0.288-5.984 0.768-5.824c2.496-13.888 9.216-26.624 19.2-36.544l4.48-4.096 4.576-3.488 2.528-0.608z m9.28 451.84a55.968 55.968 0 1 0 0 111.936 55.968 55.968 0 0 0 0-111.936z m311.392 0a55.968 55.968 0 1 0 0 111.936 55.968 55.968 0 0 0 0-111.936z" p-id="9309" fill="#2c2c2c"></path></svg>