<?xml version="1.0" standalone="no"?><!DOCTYPE svg PUBLIC "-//W3C//DTD SVG 1.1//EN" "http://www.w3.org/Graphics/SVG/1.1/DTD/svg11.dtd"><svg t="1696851473588" class="icon" viewBox="0 0 1024 1024" version="1.1" xmlns="http://www.w3.org/2000/svg" p-id="10802" width="32" height="32" xmlns:xlink="http://www.w3.org/1999/xlink"><path d="M887.68 224.064l-184.768 22.272a7.424 7.424 0 0 0-4.352 12.608l55.008 55.008-209.632 209.6-94.4-94.304a14.816 14.816 0 0 0-20.992 0L130.144 727.68a7.456 7.456 0 0 0 0 10.496l41.76 41.92c2.88 2.88 7.584 2.88 10.464 0l256.64-256.544 94.336 94.304c5.856 5.76 15.232 5.76 20.96 0l251.744-251.52 55.008 54.976a7.424 7.424 0 0 0 12.608-4.352l22.272-184.768a7.296 7.296 0 0 0-8.256-8.16z" fill="#2c2c2c" p-id="10803"></path></svg>