<?xml version="1.0" standalone="no"?><!DOCTYPE svg PUBLIC "-//W3C//DTD SVG 1.1//EN" "http://www.w3.org/Graphics/SVG/1.1/DTD/svg11.dtd"><svg t="1696850620112" class="icon" viewBox="0 0 1024 1024" version="1.1" xmlns="http://www.w3.org/2000/svg" p-id="7220" width="32" height="32" xmlns:xlink="http://www.w3.org/1999/xlink"><path d="M894.016 781.056a13.664 13.664 0 1 1-23.36 14.144c-26.72-45.152-80-25.472-109.248 2.688-53.92 51.968-105.312 62.048-162.176 8.384-51.872-48.928-122.56-48.928-174.464 0-56.864 53.664-108.256 43.584-162.208-8.384-29.216-28.16-82.496-47.84-109.184-2.688a13.664 13.664 0 0 1-23.392-14.144c35.744-58.976 106.336-46.496 151.584-2.912 43.264 41.696 78.304 51.712 124.448 8.16 62.368-58.816 149.6-58.816 211.968 0 46.144 43.52 81.184 33.536 124.48-8.16 45.216-43.584 115.84-56.064 151.552 2.88z m0-109.824a13.664 13.664 0 1 1-23.36 14.176c-26.72-45.184-80-25.504-109.248 2.656-53.92 51.968-105.312 62.048-162.176 8.384-51.872-48.896-122.56-48.896-174.464 0-56.864 53.664-108.256 43.584-162.208-8.384-29.216-28.16-82.496-47.84-109.184-2.656a13.664 13.664 0 1 1-23.392-14.176c35.744-58.976 106.336-46.496 151.584-2.88 43.264 41.664 78.304 51.68 124.448 8.16 62.368-58.88 149.6-58.88 211.968 0 46.144 43.52 81.184 33.504 124.48-8.192 45.216-43.584 115.84-56.064 151.552 2.912z m0-109.792a13.664 13.664 0 1 1-23.36 14.144c-26.72-45.152-80-25.472-109.248 2.688-53.92 51.968-105.312 62.016-162.176 8.384-51.872-48.928-122.56-48.928-174.464 0-56.864 53.632-108.256 43.584-162.208-8.384-29.216-28.16-82.496-47.84-109.184-2.688a13.664 13.664 0 1 1-23.392-14.144c35.744-58.976 106.336-46.496 151.584-2.912 43.264 41.696 78.304 51.712 124.448 8.16 62.368-58.848 149.6-58.848 211.968 0 46.144 43.52 81.184 33.536 124.48-8.16 45.216-43.584 115.84-56.064 151.552 2.88z m0-109.824a13.664 13.664 0 1 1-23.36 14.176c-26.72-45.184-80-25.504-109.248 2.656-53.92 51.968-105.312 62.048-162.176 8.384-51.872-48.928-122.56-48.928-174.464 0-56.864 53.664-108.256 43.584-162.208-8.384-29.216-28.16-82.496-47.84-109.184-2.656a13.664 13.664 0 1 1-23.392-14.176c35.744-58.976 106.336-46.496 151.584-2.912 43.264 41.696 78.304 51.712 124.448 8.192 62.368-58.88 149.6-58.88 211.968 0 46.144 43.52 81.184 33.504 124.48-8.192 45.216-43.584 115.84-56.064 151.552 2.912z m0-109.792a13.664 13.664 0 0 1-23.36 14.144c-26.72-45.152-80-25.504-109.248 2.688-53.92 51.968-105.312 62.016-162.176 8.384-51.872-48.96-122.56-48.96-174.464 0-56.864 53.632-108.256 43.584-162.208-8.384-29.216-28.16-82.496-47.84-109.184-2.688a13.664 13.664 0 0 1-23.392-14.144c35.744-58.976 106.336-46.528 151.584-2.912 43.264 41.696 78.304 51.68 124.448 8.16 62.368-58.848 149.6-58.848 211.968 0 46.144 43.52 81.184 33.536 124.48-8.16 45.216-43.616 115.84-56.064 151.552 2.88z m0-109.824a13.664 13.664 0 0 1-23.36 14.176c-26.72-45.184-80-25.504-109.248 2.656-53.92 51.968-105.312 62.048-162.176 8.384-51.872-48.928-122.56-48.928-174.464 0-56.864 53.664-108.256 43.584-162.208-8.384-29.216-28.16-82.496-47.84-109.184-2.656a13.664 13.664 0 0 1-23.392-14.176c35.744-58.976 106.336-46.496 151.584-2.912 43.264 41.696 78.304 51.712 124.448 8.192 62.368-58.88 149.6-58.88 211.968 0 46.144 43.52 81.184 33.504 124.48-8.192 45.216-43.584 115.84-56.064 151.552 2.912z" fill="#2c2c2c" p-id="7221"></path></svg>