<?xml version="1.0" standalone="no"?><!DOCTYPE svg PUBLIC "-//W3C//DTD SVG 1.1//EN" "http://www.w3.org/Graphics/SVG/1.1/DTD/svg11.dtd"><svg t="1696850634694" class="icon" viewBox="0 0 1024 1024" version="1.1" xmlns="http://www.w3.org/2000/svg" p-id="7419" width="32" height="32" xmlns:xlink="http://www.w3.org/1999/xlink"><path d="M224 896V128h288.16c58.656 0 105.76 7.776 141.184 23.296a181.664 181.664 0 0 1 83.328 71.712c20.064 32.288 30.112 66.048 30.112 101.28a174.4 174.4 0 0 1-26.592 92.672c-17.76 28.96-44.544 52.352-80.384 70.144 46.368 13.632 82.016 36.864 106.944 69.728 24.928 32.832 37.408 71.648 37.408 116.384 0 36-7.616 69.44-22.816 100.384-15.2 30.912-33.984 54.784-56.32 71.552-22.4 16.768-50.4 29.44-84.128 38.016-33.728 8.544-75.04 12.832-123.936 12.832H224z m101.696-445.248h166.272c45.12 0 77.44-2.944 97.056-8.896 25.856-7.68 45.344-20.48 58.464-38.304 13.12-17.856 19.68-40.224 19.68-67.2 0-25.504-6.144-48-18.368-67.424-12.256-19.392-29.728-32.704-52.48-39.872-22.72-7.168-61.696-10.752-116.928-10.752h-153.696v232.448z m0 354.944h191.552c32.864 0 55.968-1.216 69.28-3.68 23.424-4.16 43.008-11.2 58.752-20.992 15.744-9.792 28.672-24.064 38.816-42.784 10.144-18.72 15.232-40.32 15.232-64.864 0-28.704-7.36-53.632-22.112-74.816-14.752-21.184-35.168-36.032-61.216-44.64-26.048-8.576-63.552-12.864-112.48-12.864h-177.824v264.64z" fill="#2c2c2c" p-id="7420"></path></svg>