<?xml version="1.0" standalone="no"?><!DOCTYPE svg PUBLIC "-//W3C//DTD SVG 1.1//EN" "http://www.w3.org/Graphics/SVG/1.1/DTD/svg11.dtd"><svg t="1696850596380" class="icon" viewBox="0 0 1024 1024" version="1.1" xmlns="http://www.w3.org/2000/svg" p-id="7021" width="32" height="32" xmlns:xlink="http://www.w3.org/1999/xlink"><path d="M510.016 258.432h256.48v256.448h-256.48V258.432zM253.504 514.88h256.448v256.448H253.504V514.88z m513.6 381.056H256.896A129.088 129.088 0 0 1 128 767.008V256.96A129.088 129.088 0 0 1 256.896 128h510.208A129.088 129.088 0 0 1 896 256.896v510.208a129.024 129.024 0 0 1-128.896 128.832zM256.896 186.528c-38.816 0-70.368 31.648-70.368 70.4v510.176c0 38.816 31.648 70.368 70.4 70.368h510.176c38.816 0 70.368-31.648 70.368-70.4V256.928c0-38.816-31.648-70.368-70.4-70.368H256.928z" fill="#2c2c2c" p-id="7022"></path></svg>