<?xml version="1.0" standalone="no"?><!DOCTYPE svg PUBLIC "-//W3C//DTD SVG 1.1//EN" "http://www.w3.org/Graphics/SVG/1.1/DTD/svg11.dtd"><svg t="1698750445775" class="icon" viewBox="0 0 1024 1024" version="1.1" xmlns="http://www.w3.org/2000/svg" p-id="2354" xmlns:xlink="http://www.w3.org/1999/xlink" width="32" height="32"><path d="M704 256V192H192v554.656h64v-448C256 275.104 275.104 256 298.656 256H704z m64 0h42.656c23.584 0 42.688 19.104 42.688 42.656v554.688c0 23.552-19.104 42.656-42.688 42.656h-512A42.656 42.656 0 0 1 256 853.344v-42.688H170.656A42.656 42.656 0 0 1 128 768V170.656C128 147.104 147.104 128 170.656 128h554.688C748.896 128 768 147.104 768 170.656V256z m-448 64v512h469.344V320H320z m394.656 298.656c5.888 0 10.688 4.8 10.688 10.688V672a10.656 10.656 0 0 1-10.688 10.656h-320A10.656 10.656 0 0 1 384 672v-42.656c0-5.888 4.8-10.688 10.656-10.688h320z m0-128c5.888 0 10.688 4.8 10.688 10.688V544c0 5.888-4.8 10.656-10.688 10.656h-320A10.656 10.656 0 0 1 384 544v-42.656c0-5.888 4.8-10.688 10.656-10.688h320z" fill="#2c2c2c" p-id="2355"></path></svg>