<?xml version="1.0" standalone="no"?><!DOCTYPE svg PUBLIC "-//W3C//DTD SVG 1.1//EN" "http://www.w3.org/Graphics/SVG/1.1/DTD/svg11.dtd"><svg t="1696850884103" class="icon" viewBox="0 0 1024 1024" version="1.1" xmlns="http://www.w3.org/2000/svg" p-id="8909" width="32" height="32" xmlns:xlink="http://www.w3.org/1999/xlink"><path d="M787.456 690.72c0-18.016-6.272-34.592-18.816-49.696-12.544-15.104-27.264-22.688-44.16-22.72-14.848 0-26.688 5.248-35.552 15.808-8.864 10.56-13.28 24-13.28 40.32s5.184 29.888 15.584 40.704c10.4 10.816 25.344 16.224 44.832 16.288 14.304 0 26.432-3.872 36.416-11.616 9.984-7.712 14.976-17.408 14.976-29.12z m-261.44 54.432a16.096 16.096 0 0 1-4.288 10.304l-136.704 136.704a14.336 14.336 0 0 1-9.824 3.84 15.296 15.296 0 0 1-9.824-3.84L228.16 755.008c-4.288-4.576-5.28-9.568-2.976-14.976 2.24-5.76 6.528-8.64 12.8-8.64h82.336V141.76c0-4.064 1.28-7.36 3.84-9.92 2.56-2.56 5.856-3.84 9.824-3.84h82.336c4 0 7.264 1.28 9.824 3.84 2.56 2.56 3.84 5.856 3.84 9.92v589.664h82.336c4 0 7.264 1.28 9.824 3.84 2.56 2.56 3.84 5.856 3.84 9.92z m321.408-29.568c0 17.728-1.824 35.072-5.504 52.096a196.992 196.992 0 0 1-17.6 48.832 171.2 171.2 0 0 1-29.12 40.96 124.16 124.16 0 0 1-42.24 28 142.336 142.336 0 0 1-54.656 10.528c-17.728 0-33.152-2.272-46.24-6.848-6.88-2.304-12.896-4.448-18.048-6.432l16.736-48.48c4.288 2.016 8.736 3.584 13.28 4.8 10.56 3.648 21.28 5.504 32.192 5.504 23.968 0 43.168-8.32 57.6-25.024 14.432-16.704 23.936-37.504 28.48-62.4h-0.832c-5.984 6.592-14.784 11.84-26.336 15.84-11.584 4-23.68 6.016-36.256 6.08-30.272 0-54.976-10.24-74.112-30.656-19.168-20.416-28.736-45.088-28.736-73.952 0-30.016 10.304-55.424 30.88-76.256s46.432-31.296 77.568-31.36c35.136 0 64.416 13.536 87.872 40.576 23.424 27.04 35.136 63.104 35.072 108.192z m-12.8-307.264v48.832H633.6V408.32h71.584V223.168c0-2.016 0.064-4.736 0.224-8.16 0.16-3.424 0.192-5.856 0.16-7.296v-6.816h-0.864l-2.976 5.12a82.048 82.048 0 0 1-11.136 13.312l-26.56 24.8-35.2-36.864L711.2 128h52.672v280.32h70.72z" fill="#2c2c2c" p-id="8910"></path></svg>