<?xml version="1.0" standalone="no"?><!DOCTYPE svg PUBLIC "-//W3C//DTD SVG 1.1//EN" "http://www.w3.org/Graphics/SVG/1.1/DTD/svg11.dtd"><svg t="1696850917508" class="icon" viewBox="0 0 1024 1024" version="1.1" xmlns="http://www.w3.org/2000/svg" p-id="9108" width="32" height="32" xmlns:xlink="http://www.w3.org/1999/xlink"><path d="M843.84 430.4L749.312 134.72a9.632 9.632 0 0 0-9.28-6.752h-80.736a9.728 9.728 0 0 0-9.28 6.752l-95.264 295.616a9.6 9.6 0 0 0 9.28 12.736h58.88a9.824 9.824 0 0 0 9.248-7.072l18.24-64.288h92.864l18.048 64.192c1.184 4.16 4.96 7.04 9.28 7.072h63.84a9.664 9.664 0 0 0 9.28-12.64h0.128z m-183.936-113.024l34.208-121.984h6.592l33.472 121.984h-74.272zM809.6 831.68h-135.264v-0.416l138.4-197.12a9.76 9.76 0 0 0 1.76-5.632v-37.984a9.76 9.76 0 0 0-9.728-9.728h-213.024a9.76 9.76 0 0 0-9.728 9.728v44.864c0 5.376 4.352 9.696 9.728 9.728h127.904v0.416l-138.944 197.12a9.76 9.76 0 0 0-1.76 5.632v37.984c0 5.376 4.384 9.696 9.728 9.728h220.576a9.76 9.76 0 0 0 9.728-9.728v-45.056a9.6 9.6 0 0 0-9.376-9.504v-0.032z m-407.552-121.472h-79.296V157.248a8.384 8.384 0 0 0-8.32-8.352H256a8.384 8.384 0 0 0-8.32 8.32v553.024H168.352a8.384 8.384 0 0 0-6.592 13.568l116.864 148.192a8.32 8.32 0 0 0 13.12 0l116.864-148.16a8.384 8.384 0 0 0-6.816-13.6l0.256-0.032z" fill="#2c2c2c" p-id="9109"></path></svg>