<?xml version="1.0" standalone="no"?><!DOCTYPE svg PUBLIC "-//W3C//DTD SVG 1.1//EN" "http://www.w3.org/Graphics/SVG/1.1/DTD/svg11.dtd"><svg t="1696850256580" class="icon" viewBox="0 0 1024 1024" version="1.1" xmlns="http://www.w3.org/2000/svg" p-id="4235" width="32" height="32" xmlns:xlink="http://www.w3.org/1999/xlink"><path d="M221.888 410.624h399.84v54.848H221.536l108.544 108.544a27.424 27.424 0 1 1-38.816 38.784L136.064 457.6a27.36 27.36 0 0 1 0-38.784l155.232-155.136a27.424 27.424 0 0 1 38.784 38.784l-108.192 108.16zM896 684.896a274.24 274.24 0 0 0-274.272-274.24v54.816a219.424 219.424 0 0 1 219.424 219.424H896z m0 0h-54.848v82.304a27.424 27.424 0 1 0 54.848 0v-82.304z" fill="#2c2c2c" p-id="4236"></path></svg>