<?xml version="1.0" standalone="no"?><!DOCTYPE svg PUBLIC "-//W3C//DTD SVG 1.1//EN" "http://www.w3.org/Graphics/SVG/1.1/DTD/svg11.dtd"><svg t="1696851504428" class="icon" viewBox="0 0 1024 1024" version="1.1" xmlns="http://www.w3.org/2000/svg" p-id="11399" width="32" height="32" xmlns:xlink="http://www.w3.org/1999/xlink"><path d="M731.456 564.096a164.384 164.384 0 0 0-111.04 43.52l-80.96-115.36L768.96 164.704a24.032 24.032 0 0 0-38.944-27.392l-219.648 312.416L290.24 137.28a24.032 24.032 0 0 0-39.392 27.392l229.728 327.04-78.592 112a166.08 166.08 0 1 0 32.448 37.504l75.712-107.68 79.04 112.48a165.12 165.12 0 1 0 142.528-81.92h-0.256zM294.56 846.464a117.28 117.28 0 1 1 0-234.56 117.28 117.28 0 0 1 0 234.56z m436.896 0a117.28 117.28 0 1 1 0-234.56 117.28 117.28 0 0 1 0 234.56z" fill="#2c2c2c" p-id="11400"></path></svg>