<?xml version="1.0" standalone="no"?><!DOCTYPE svg PUBLIC "-//W3C//DTD SVG 1.1//EN" "http://www.w3.org/Graphics/SVG/1.1/DTD/svg11.dtd"><svg t="1696851395405" class="icon" viewBox="0 0 1024 1024" version="1.1" xmlns="http://www.w3.org/2000/svg" p-id="9507" width="32" height="32" xmlns:xlink="http://www.w3.org/1999/xlink"><path d="M659.712 393.856h-88.608v-206.72h88.608v206.72zM896 305.28v502.144C896 856.32 856.32 896 807.424 896H216.576A88.576 88.576 0 0 1 128 807.424V216.576C128 167.68 167.68 128 216.576 128H718.72c24.48 0 38.944 18.24 106.72 88.416C879.488 272.416 896 280.8 896 305.28zM275.712 393.856c0 16.256 13.216 29.568 29.568 29.568h384a29.664 29.664 0 0 0 29.536-29.568v-206.72a29.6 29.6 0 0 0-29.536-29.568h-384a29.664 29.664 0 0 0-29.568 29.536v206.72z m531.712 147.712a29.6 29.6 0 0 0-29.568-29.568H246.144a29.664 29.664 0 0 0-29.568 29.568v295.392c0 16.256 13.216 29.568 29.568 29.568h531.712a29.664 29.664 0 0 0 29.568-29.568v-295.392z" fill="#2c2c2c" p-id="9508"></path></svg>