<?xml version="1.0" standalone="no"?><!DOCTYPE svg PUBLIC "-//W3C//DTD SVG 1.1//EN" "http://www.w3.org/Graphics/SVG/1.1/DTD/svg11.dtd"><svg t="1693229202877" class="icon" viewBox="0 0 1024 1024" version="1.1" xmlns="http://www.w3.org/2000/svg" p-id="21163" xmlns:xlink="http://www.w3.org/1999/xlink" width="32" height="32"><path d="M837.818358 15.266945c0 0-34.301762-34.301762-68.603524 0L68.762212 715.719567l-17.852398 17.852398 195.070104 195.118485 0 0 28.592865 28.592865 15.820418 15.820418 34.205001-34.205001-0.04838-0.04838L871.926598 391.473575l0.04838 0.04838 34.205001-34.205001-0.04838-0.04838 102.566622-102.566622c34.301762-34.301762 0-68.603524 0-68.603524L837.818358 15.266945zM290.24806 904.548589l-170.831483-170.831483L666.793353 186.29195l170.831483 170.831483L290.24806 904.548589zM871.829837 322.966812l-170.831483-170.831483 102.566622-102.566622 170.831483 170.831483L871.829837 322.966812z" p-id="21164" fill="#2c2c2c"></path><path d="M66.246427 957.718739 102.241506 784.952037 50.329248 733.03978 0.061927 1023.95162 290.344821 973.006972 274.572783 957.283315 246.028299 928.69045Z" p-id="21165" fill="#2c2c2c"></path></svg>