<?xml version="1.0" standalone="no"?><!DOCTYPE svg PUBLIC "-//W3C//DTD SVG 1.1//EN" "http://www.w3.org/Graphics/SVG/1.1/DTD/svg11.dtd"><svg t="1693229590919" class="icon" viewBox="0 0 1024 1024" version="1.1" xmlns="http://www.w3.org/2000/svg" p-id="33968" xmlns:xlink="http://www.w3.org/1999/xlink" width="32" height="32"><path d="M359.828 601.089l63.083 63.083c-62.144 52.602-152.864 134.275-171.601 148.958-47.659 37.375-89.829 49.389-89.829 49.389s12.014-42.171 49.389-89.829c14.683-18.738 96.355-109.456 148.958-171.601zM849.072 343.761l-168.833-168.833c-17.897-17.897-46.867-17.897-64.714 0-17.897 17.897-17.897 46.868 0 64.714l13.447 13.447-246.599 174.172-54.58-54.531c-17.896-17.896-46.867-17.895-64.714 0-17.897 17.897-17.897 46.868 0 64.714l323.476 323.426c17.895 17.897 46.867 17.897 64.714 0 17.897-17.897 17.897-46.867 0-64.714l-54.531-54.531 174.172-246.649 13.447 13.447c17.897 17.895 46.868 17.896 64.714 0s17.895-46.819 0-64.666z" p-id="33969" fill="#2c2c2c"></path></svg>