<?xml version="1.0" standalone="no"?><!DOCTYPE svg PUBLIC "-//W3C//DTD SVG 1.1//EN" "http://www.w3.org/Graphics/SVG/1.1/DTD/svg11.dtd"><svg t="1693230221735" class="icon" viewBox="0 0 1024 1024" version="1.1" xmlns="http://www.w3.org/2000/svg" p-id="1085" xmlns:xlink="http://www.w3.org/1999/xlink" width="32" height="32"><path d="M252.3 526.2c59.6-59.6 138.8-92.4 223-92.4h284L621.4 296c-11.7-11.7-11.7-30.7 0-42.4s30.7-11.7 42.4 0L855.3 445c11.7 11.7 11.7 30.6 0.1 42.3L663.9 680.5c-5.9 5.9-13.6 8.9-21.3 8.9-7.6 0-15.3-2.9-21.1-8.7-11.8-11.7-11.8-30.7-0.2-42.4l143.1-144.4H475.3c-68.2 0-132.3 26.6-180.6 74.8-48.2 48.2-74.8 112.4-74.8 180.6 0 16.6-13.4 30-30 30s-30-13.4-30-30c0-84.3 32.8-163.5 92.4-223.1z" p-id="1086" fill="#2c2c2c"></path></svg>