<?xml version="1.0" standalone="no"?><!DOCTYPE svg PUBLIC "-//W3C//DTD SVG 1.1//EN" "http://www.w3.org/Graphics/SVG/1.1/DTD/svg11.dtd"><svg t="1693230035711" class="icon" viewBox="0 0 1024 1024" version="1.1" xmlns="http://www.w3.org/2000/svg" p-id="11711" xmlns:xlink="http://www.w3.org/1999/xlink" width="32" height="32"><path d="M812.1 913h-600c-16.6 0-30-13.4-30-30s13.4-30 30-30h600c16.6 0 30 13.4 30 30s-13.4 30-30 30zM482 677V143c0-16.6 13.4-30 30-30s30 13.4 30 30v534c0 16.6-13.4 30-30 30s-30-13.4-30-30z" fill="#2c2c2c" p-id="11712"></path><path d="M702.7 503a29.937 29.937 0 0 0-42.5 0L540.4 622.8c-15.6 15.6-40.9 15.6-56.6 0L363.9 502.9c-11.7-11.7-30.7-11.7-42.4 0s-11.7 30.7 0 42.4l162.6 162.6c15.6 15.6 41 15.6 56.6 0l162-162.5c11.7-11.8 11.7-30.7 0-42.4z" fill="#2c2c2c" p-id="11713"></path></svg>