<?xml version="1.0" standalone="no"?><!DOCTYPE svg PUBLIC "-//W3C//DTD SVG 1.1//EN" "http://www.w3.org/Graphics/SVG/1.1/DTD/svg11.dtd"><svg t="1693229530632" class="icon" viewBox="0 0 1024 1024" version="1.1" xmlns="http://www.w3.org/2000/svg" p-id="31998" xmlns:xlink="http://www.w3.org/1999/xlink" width="32" height="32"><path d="M543.104 307.797333a32 32 0 0 1 16.896 28.202667V704a32 32 0 0 1-64 0V395.776L449.749333 426.666667a32 32 0 1 1-35.498666-53.248l96-64a32 32 0 0 1 32.853333-1.578667z" fill="#2c2c2c" p-id="31999"></path><path d="M128 192A64 64 0 0 1 192 128h640A64 64 0 0 1 896 192v640a64 64 0 0 1-64 64h-640A64 64 0 0 1 128 832v-640z m704 0h-640v640h640v-640z" fill="#2c2c2c" p-id="32000"></path></svg>