<?xml version="1.0" standalone="no"?><!DOCTYPE svg PUBLIC "-//W3C//DTD SVG 1.1//EN" "http://www.w3.org/Graphics/SVG/1.1/DTD/svg11.dtd"><svg t="1693230235746" class="icon" viewBox="0 0 1024 1024" version="1.1" xmlns="http://www.w3.org/2000/svg" p-id="1275" xmlns:xlink="http://www.w3.org/1999/xlink" width="32" height="32"><path d="M771.7 526.2c-59.6-59.6-138.8-92.4-223-92.4h-284L402.6 296c11.7-11.7 11.7-30.7 0-42.4s-30.7-11.7-42.4 0L168.7 445c-11.7 11.7-11.7 30.6-0.1 42.3l191.5 193.1c5.9 5.9 13.6 8.9 21.3 8.9 7.6 0 15.3-2.9 21.1-8.7 11.8-11.7 11.8-30.7 0.2-42.4L259.6 493.9h289.2c68.2 0 132.3 26.6 180.6 74.8 48.2 48.2 74.8 112.4 74.8 180.6 0 16.6 13.4 30 30 30s30-13.4 30-30c-0.1-84.3-32.9-163.5-92.5-223.1z" p-id="1276" fill="#2c2c2c"></path></svg>