<?xml version="1.0" standalone="no"?><!DOCTYPE svg PUBLIC "-//W3C//DTD SVG 1.1//EN" "http://www.w3.org/Graphics/SVG/1.1/DTD/svg11.dtd"><svg t="1696850689784" class="icon" viewBox="0 0 1024 1024" version="1.1" xmlns="http://www.w3.org/2000/svg" p-id="8048" width="32" height="32" xmlns:xlink="http://www.w3.org/1999/xlink"><rect x="0" y="0" width="1024" height="1024" fill="none"/><path d="M519.232 128.224h293.184c15.296 0 28.032 17.824 29.44 33.056 1.376 15.232-9.056 35.168-24.128 37.888l-5.312 0.48h-258.048v250.752h-73.504V199.584l-259.264 0.064c-15.296 0-28.16-17.792-29.536-33.024-1.376-15.264 9.152-35.2 24.224-37.92l5.376-0.48 293.6-0.16h2.016l1.92 0.16zM555.104 603.328v263.072c0 15.296-19.936 28.096-35.168 29.472-15.232 1.376-35.68-9.152-38.4-24.224l-0.48-5.248v-263.136l74.048 0.064z" fill="#2c2c2c" p-id="8049"></path><path d="M794.84 498.77a27.69 27.69 0 0 1 5.01 54.93l-5.01 0.45H241.01a27.69 27.69 0 0 1-4.98-54.96l4.98-0.42h553.83z" fill="#2c2c2c" p-id="8050"></path></svg>