<?xml version="1.0" standalone="no"?><!DOCTYPE svg PUBLIC "-//W3C//DTD SVG 1.1//EN" "http://www.w3.org/Graphics/SVG/1.1/DTD/svg11.dtd"><svg t="1696851455861" class="icon" viewBox="0 0 1024 1024" version="1.1" xmlns="http://www.w3.org/2000/svg" p-id="10372" width="32" height="32" xmlns:xlink="http://www.w3.org/1999/xlink"><path d="M871.104 313.856L710.208 152.96a85.44 85.44 0 0 0-120.704 0L152.864 589.984A84.928 84.928 0 0 0 128 650.304c0 22.688 8.768 44.256 24.864 60.352l160.928 160.896a84.928 84.928 0 0 0 60.32 24.864c22.688 0 44.256-8.768 60.352-24.864L871.104 434.56a85.568 85.568 0 0 0 0-120.704zM382.88 819.648c-6.208 6.208-10.944 6.208-17.184 0L204.8 658.72a12.704 12.704 0 0 1-3.648-8.768 12.16 12.16 0 0 1 3.648-8.768l155.04-155.072c2.208 3.648 3.68 7.328 6.976 10.24l160.896 160.896c2.912 2.944 6.944 4.768 10.24 6.976l-155.072 155.424z" fill="#2c2c2c" p-id="10373"></path></svg>