<?xml version="1.0" standalone="no"?><!DOCTYPE svg PUBLIC "-//W3C//DTD SVG 1.1//EN" "http://www.w3.org/Graphics/SVG/1.1/DTD/svg11.dtd"><svg t="1714375112322" class="icon" viewBox="0 0 1024 1024" version="1.1" xmlns="http://www.w3.org/2000/svg" p-id="4276" width="64" height="64" xmlns:xlink="http://www.w3.org/1999/xlink"><path d="M804.911628 785.860465h-180.986047c-19.051163 0-28.576744-14.288372-28.576744-28.576744 0-19.051163 14.288372-28.576744 28.576744-28.576744h152.409303v-100.018605c0-19.051163 14.288372-28.576744 28.576744-28.576744s28.576744 14.288372 28.576744 28.576744v128.595349c0 14.288372-9.525581 28.576744-28.576744 28.576744z m0-428.651163c-19.051163 0-28.576744-14.288372-28.576744-28.576744V228.613953h-152.409303c-19.051163 0-28.576744-14.288372-28.576744-28.576744 0-19.051163 14.288372-28.576744 28.576744-28.576744h180.986047c19.051163 0 28.576744 14.288372 28.576744 28.576744v128.595349c0 19.051163-9.525581 28.576744-28.576744 28.576744z m-281.004651 9.525582H328.632558c-19.051163 0-28.576744-14.288372-28.576744-28.576744s14.288372-28.576744 28.576744-28.576745H523.906977c19.051163 0 28.576744 14.288372 28.576744 28.576745s-14.288372 28.576744-28.576744 28.576744zM328.632558 228.613953H180.986047v100.018605c0 19.051163-14.288372 28.576744-28.576745 28.576744s-33.339535-9.525581-33.339535-28.576744V195.274419c0-19.051163 14.288372-28.576744 28.576745-28.576745h180.986046c19.051163 0 28.576744 14.288372 28.576744 28.576745 4.762791 19.051163-9.525581 33.339535-28.576744 33.339534z m-180.986046 366.734884c19.051163 0 28.576744 14.288372 28.576744 28.576744v100.018605h152.409302c19.051163 0 28.576744 14.288372 28.576744 28.576744 0 19.051163-14.288372 28.576744-28.576744 28.576744H147.646512c-19.051163 0-28.576744-14.288372-28.576745-28.576744v-128.595349c0-19.051163 14.288372-28.576744 28.576745-28.576744z m476.279069-133.358139H328.632558c-19.051163 0-28.576744-14.288372-28.576744-33.339535 0-19.051163 14.288372-28.576744 28.576744-28.576744h300.055814c19.051163 0 28.576744 14.288372 28.576744 28.576744 0 19.051163-14.288372 33.339535-33.339535 33.339535z m0 90.493023H328.632558c-19.051163 0-28.576744-14.288372-28.576744-28.576744 0-19.051163 14.288372-28.576744 28.576744-28.576744h300.055814c19.051163 0 28.576744 14.288372 28.576744 28.576744s-14.288372 28.576744-33.339535 28.576744z m-323.869767 61.916279c0-19.051163 14.288372-28.576744 28.576744-28.576744h42.865116c19.051163 0 28.576744 14.288372 28.576745 28.576744 0 19.051163-14.288372 28.576744-28.576745 28.576744h-42.865116c-19.051163 4.762791-28.576744-9.525581-28.576744-28.576744z" p-id="4277" fill="#2c2c2c"></path></svg>