<?xml version="1.0" standalone="no"?><!DOCTYPE svg PUBLIC "-//W3C//DTD SVG 1.1//EN" "http://www.w3.org/Graphics/SVG/1.1/DTD/svg11.dtd"><svg t="1696851511986" class="icon" viewBox="0 0 1024 1024" version="1.1" xmlns="http://www.w3.org/2000/svg" p-id="11598" width="32" height="32" xmlns:xlink="http://www.w3.org/1999/xlink"><path d="M440.672 192C508.352 192 563.2 245.024 563.2 309.024l-0.032 89.6h210.304c67.68 0 122.528 53.024 122.528 117.024v179.2c0 67.68-54.848 118.88-122.528 118.88H583.36c-71.328 0-122.528-54.88-122.528-131.68v-78.4a126.72 126.72 0 0 1-20.128 1.6H250.56C182.848 605.248 128 552.224 128 488.224v-179.2C128 245.024 182.848 192 250.528 192h190.144zM204.8 643.648c14.624 0 27.424 12.8 27.424 27.424 0 43.904 40.224 78.656 91.424 78.656 14.624 0 27.424 12.8 27.424 27.424-3.648 14.624-14.624 25.6-29.248 25.6-80.448 0-144.448-58.528-144.448-131.68 0-14.624 12.8-27.424 27.424-27.424z m568.672-190.176H563.2l0.032 34.752a120 120 0 0 1-47.52 91.936v101.888c0 45.728 27.392 78.624 67.648 78.624h190.144c38.4 0 67.68-27.424 67.68-64v-179.2c0-34.72-31.104-64-67.68-64z m-67.648 93.28l69.504 129.824H742.4L724.128 640h-73.152l-16.448 36.576h-31.104l69.504-129.824h32.896z m-16.448 20.096l-29.248 56.704h58.496l-29.248-56.704zM440.64 245.024H250.56c-38.4 0-67.68 27.424-67.68 64v179.2c0 34.752 31.104 64 67.68 64h190.144c38.4 0 67.68-27.424 67.68-64v-179.2c0-34.752-31.104-64-67.68-64zM358.4 294.4v31.072h67.648v85.952h-18.272v-10.976H358.4V460.8h-18.272v-60.352H290.752v10.976h-18.304v-85.952h67.68V294.4h18.272z m-18.272 47.552H290.752v43.872h49.376v-43.872z m67.648 0H358.4v43.872h49.376v-43.872z m265.152-144.48c80.448 0 144.448 58.528 144.448 131.68 1.824 16.448-9.152 29.248-25.6 29.248a28.128 28.128 0 0 1-27.424-27.424c0-43.904-40.224-78.624-91.424-78.624a28.128 28.128 0 0 1-27.456-27.424c0-14.656 12.8-27.456 27.456-27.456z" fill="#2c2c2c" p-id="11599"></path></svg>