<?xml version="1.0" encoding="UTF-8"?>
<!DOCTYPE svg PUBLIC "-//W3C//DTD SVG 1.1//EN" "http://www.w3.org/Graphics/SVG/1.1/DTD/svg11.dtd">
<!-- Creator: CorelDRAW -->
<svg xmlns="http://www.w3.org/2000/svg" xml:space="preserve" width="87.8669mm" height="87.8669mm" style="shape-rendering:geometricPrecision; text-rendering:geometricPrecision; image-rendering:optimizeQuality; fill-rule:evenodd; clip-rule:evenodd"
viewBox="0 0 29.3256 29.3256"
 xmlns:xlink="http://www.w3.org/1999/xlink">
 <defs>
  <style type="text/css">
   <![CDATA[
    .fil0 {fill:#1F1A17}
   ]]>
  </style>
 </defs>
 <g id="图层_x0020_1">
  <metadata id="CorelCorpID_0Corel-Layer"/>
  <path class="fil0" d="M-0 14.6628l14.6628 14.6628 14.6628 -14.6628 -2.82393 -2.82397 -11.8389 -11.8389 -14.6628 14.6628zm17.3584 6.45831l2.08704 2.08698 -4.78262 4.78262 -7.71265 -7.71265 1.95097 -1.95094 5.55608 5.55608c0.0379475,0.0379141 0.101093,0.0379141 0.139041,0l2.76212 -2.76209zm-0.667435 -0.667502l-2.16421 2.16421 -4.95813 -4.95817 2.16417 -2.16417 4.95817 4.95813zm-4.9582 -6.29294l-2.83161 2.83154 -2.15937 -2.1594 10.7095 -10.7095 7.785 7.785 -7.87792 7.87792 -5.6256 -5.62557zm14.171 -1.58492l2.08704 2.08698 -7.87795 7.87799 -2.08704 -2.08704 7.87795 -7.87792zm-24.5689 2.08698l13.328 -13.3279 2.12102 2.12102 -11.3075 11.3075c-0.0378807,0.0378473 -0.0379141,0.100993 -3.33751e-005,0.138907l2.75742 2.75738 -1.95101 1.95097 -4.94789 -4.94789z"/>
 </g>
</svg>
